<?xml version="1.0" encoding="utf-8"?>
<!-- Generator: Adobe Illustrator 26.5.0, SVG Export Plug-In . SVG Version: 6.00 Build 0)  -->
<svg version="1.1" id="Layer_1" xmlns="http://www.w3.org/2000/svg" xmlns:xlink="http://www.w3.org/1999/xlink" x="0px" y="0px"
	 viewBox="0 0 1126 700" style="enable-background:new 0 0 1126 700;" xml:space="preserve">
<style type="text/css">
	.st0{fill:#DD3333;}
</style>
<path class="st0" d="M563,5C372.5,5,218,159.5,218,350s154.5,345,345,345s345-154.5,345-345S753.5,5,563,5z M539.3,281.6
	c7.4-2.6,15.4-4,23.7-4s16.3,1.4,23.7,4c7.1,2.4,13.6,5.9,19.4,10.3c4.4,3.3,8.5,7.1,12.1,11.2c10.7,12.6,17.2,28.9,17.2,46.8
	c0,40-32.4,72.4-72.4,72.4s-72.4-32.4-72.4-72.4c0-17.9,6.4-34.2,17.2-46.8c3.5-4.2,7.6-7.9,12-11.2
	C525.6,287.5,532.2,284,539.3,281.6z"/>
<path d="M713.3,222.7c-0.8-1-1.6-1.9-2.4-2.8c20.3-29.1,32.3-64.6,32.3-103c0-18.8-2.9-36.8-8.1-53.9
	c-14.6,46.9-48.1,85.6-91.2,107.3c-5.4-2.4-10.9-4.5-16.4-6.6c-20.2-6.9-41.9-10.7-64.5-10.7s-44.3,3.8-64.5,10.7
	c-5.6,2-11.1,4.2-16.4,6.6C438.8,148.6,405.5,110,390.9,63c-5.3,17-8.1,35.1-8.1,53.9c0,38.4,11.9,73.8,32.3,103
	c-0.9,0.9-1.6,1.8-2.4,2.8C383.6,257,366,301.4,366,350c0,108.8,88.2,197,197,197s197-88.2,197-197C760,301.4,742.4,257,713.3,222.7
	z M563,422.4c-40,0-72.4-32.4-72.4-72.4c0-17.9,6.4-34.2,17.2-46.8c3.5-4.2,7.6-7.9,12-11.2c5.9-4.4,12.5-7.9,19.6-10.3
	c7.4-2.6,15.4-4,23.7-4s16.3,1.4,23.7,4c7.1,2.4,13.6,5.9,19.4,10.3c4.4,3.3,8.5,7.1,12.1,11.2c10.7,12.6,17.2,28.9,17.2,46.8
	C635.4,390,603,422.4,563,422.4z"/>
</svg>
